<?xml version="1.0" encoding="utf-8"?>
<!-- Generator: Adobe Illustrator 20.1.0, SVG Export Plug-In . SVG Version: 6.00 Build 0)  -->
<svg version="1.1" id="Layer_1" xmlns="http://www.w3.org/2000/svg" xmlns:xlink="http://www.w3.org/1999/xlink" x="0px" y="0px"
	 viewBox="0 0 398 60" style="enable-background:new 0 0 398 60;" xml:space="preserve">
<title>Launchaco</title>
<desc>Created with Sketch.</desc>
<g>
	<path d="M15.6,42.8h14.1v10H3.8V7.6h11.8V42.8z"/>
	<path d="M81.3,29.3c0,14.6-10.5,25-25,25c-14.5,0-25-10.3-25-25c0-13.7,12-23.3,25-23.3C69.3,6.1,81.3,15.7,81.3,29.3z M43.5,29.4
		c0,7.8,5.8,13.5,12.8,13.5c7,0,12.8-5.7,12.8-13.5c0-6.2-5.8-11.9-12.8-11.9C49.3,17.5,43.5,23.2,43.5,29.4z"/>
	<path d="M131.9,27.5c-0.1,6.6-0.6,12.2-4.6,17.9c-4.4,6.2-11.1,8.9-18.7,8.9c-14.2,0-24.1-9.7-24.1-23.9c0-14.7,10-24.4,24.5-24.4
		c9.3,0,16.5,4.2,20.4,12.7l-11.2,4.7c-1.6-4.3-5-7.2-9.8-7.2c-7.7,0-11.8,7.4-11.8,14.3c0,7,4.2,14.2,11.9,14.2
		c5.1,0,9-2.6,9.5-7.9h-9.6v-9.2H131.9z"/>
	<path d="M185,29.3c0,14.6-10.5,25-25,25c-14.5,0-25-10.3-25-25c0-13.7,12-23.3,25-23.3C173,6.1,185,15.7,185,29.3z M147.2,29.4
		c0,7.8,5.8,13.5,12.8,13.5c7,0,12.8-5.7,12.8-13.5c0-6.2-5.8-11.9-12.8-11.9C153,17.5,147.2,23.2,147.2,29.4z"/>
</g>
</svg>
