<?xml version="1.0" encoding="utf-8"?>
<!-- Generator: Adobe Illustrator 20.1.0, SVG Export Plug-In . SVG Version: 6.00 Build 0)  -->
<svg version="1.1" id="Layer_1" xmlns="http://www.w3.org/2000/svg" xmlns:xlink="http://www.w3.org/1999/xlink" x="0px" y="0px"
	 viewBox="0 0 420 842" style="enable-background:new 0 0 420 842;" xml:space="preserve">
<style type="text/css">
	.st0{fill:#F5F5F5;}
	.st1{fill:#FFFFFF;}
	.st2{fill:#395185;}
	.st3{fill:#55ACEE;}
	.st4{fill:#D53F71;}
	.st5{fill:#231F20;}
	.st6{fill:#7F7F7F;}
	.st7{fill:#ABACAD;}
	.st8{fill:#D8D8D8;}
	.st9{fill:#B3B3B3;fill-opacity:0.7;}
	.st10{fill:#52CA6F;}
	.st11{fill:#C9C9C9;fill-opacity:0.8;}
	.st12{fill:#B3B3B3;}
	.st13{fill:#FFFFFF;stroke:#F5F5F5;}
	.st14{fill:#CCCCCC;}
	.st15{fill-opacity:3.921570e-02;}
	.st16{fill:#3FC55F;fill-opacity:0.9;}
	.st17{fill:#C6C6C6;}
	.st18{fill:#B3B3B3;fill-opacity:0.5;}
	.st19{fill:#B3B3B3;fill-opacity:0.3;}
	.st20{fill:#C9C9C9;}
</style>
<title>Artboard 4</title>
<desc>Created with Sketch.</desc>
<g id="Page-1">
	<g id="Artboard-4">
		<g id="HtmlToSvg" transform="translate(-5.000000, -5.000000)">
			<g id="Created-by-HiQPdf">
				<g id="Group_35_">
					<g id="second-one" transform="translate(24.000000, 363.000000)">
						<g id="Group-3">
							<path id="Shape" class="st0" d="M381,0c1.7,0,3,1.3,3,3v209c0,1.7-1.3,3-3,3H3c-1.7,0-3-1.3-3-3V3c0-1.7,1.3-3,3-3H381z"/>
							<g id="Group" transform="translate(12.000000, 121.000000)">
								<path id="Shape_1_" class="st1" d="M3,0h354c1.7,0,3,1.3,3,3v31c0,1.7-1.3,3-3,3H3c-1.7,0-3-1.3-3-3V3C0,1.3,1.3,0,3,0"/>
							</g>
							<g id="Group_1_" transform="translate(20.000000, 47.000000)">
								<path id="Shape_2_" class="st2" d="M19.8,21c0.6,0,1.2-0.5,1.2-1.2V1.2C21,0.5,20.5,0,19.8,0H1.2C0.5,0,0,0.5,0,1.2v18.7
									C0,20.5,0.5,21,1.2,21H19.8"/>
							</g>
							<g id="Group_2_" transform="translate(28.449214, 50.117186)">
								<path id="Shape_3_" class="st1" d="M6,17.9V9.8h2.7l0.4-3.2H6v-2C6,3.6,6.3,3,7.6,3l1.7,0V0.2C9,0.1,8,0.1,6.8,0.1
									c-2.4,0-4.1,1.5-4.1,4.2v2.3H0v3.2h2.7v8.1H6"/>
							</g>
							<g id="Group_3_" transform="translate(20.000000, 88.000000)">
								<path id="Shape_4_" class="st3" d="M1.1,0h18.9C20.5,0,21,0.5,21,1.1v18.9c0,0.6-0.5,1.1-1.1,1.1H1.1C0.5,21,0,20.5,0,19.9
									V1.1C0,0.5,0.5,0,1.1,0"/>
							</g>
							<g id="Group_4_" transform="translate(22.953123, 92.347654)">
								<path id="Shape_5_" class="st1" d="M15.2,1.5c-0.6,0.2-1.2,0.4-1.8,0.5c0.6-0.4,1.1-1,1.4-1.7c-0.6,0.4-1.3,0.6-2,0.8
									c-0.6-0.6-1.4-1-2.3-1C8.8,0,7.4,1.4,7.4,3.1c0,0.2,0,0.5,0.1,0.7C4.9,3.7,2.6,2.4,1.1,0.6C0.8,1,0.6,1.6,0.6,2.1
									c0,1.1,0.5,2,1.4,2.6c-0.5,0-1-0.2-1.4-0.4c0,0,0,0,0,0c0,1.5,1.1,2.8,2.5,3C2.8,7.5,2.6,7.5,2.3,7.5c-0.2,0-0.4,0-0.6-0.1
									c0.4,1.2,1.5,2.1,2.9,2.2c-1.1,0.8-2.4,1.3-3.9,1.3c-0.3,0-0.5,0-0.7,0c1.4,0.9,3,1.4,4.8,1.4c5.7,0,8.9-4.7,8.9-8.8
									c0-0.1,0-0.3,0-0.4C14.2,2.6,14.8,2.1,15.2,1.5"/>
							</g>
							<g id="Group_5_" transform="translate(20.000000, 129.000000)">
								<path id="Shape_6_" class="st4" d="M20.1,0C20.6,0,21,0.4,21,0.9v19.3c0,0.5-0.4,0.9-0.9,0.9H0.9C0.4,21,0,20.6,0,20.1V0.9
									C0,0.4,0.4,0,0.9,0H20.1z"/>
							</g>
							<g id="Group_6_" transform="translate(22.692000, 131.692000)">
								<path id="Shape_7_" class="st1" d="M0,4.5C0,2,2,0,4.5,0h6.6c2.5,0,4.5,2,4.5,4.5v6.6c0,2.5-2,4.5-4.5,4.5H4.5
									c-2.5,0-4.5-2-4.5-4.5V4.5 M1.4,4.6c0-1.8,1.4-3.2,3.2-3.2H11c1.8,0,3.2,1.4,3.2,3.2V11c0,1.8-1.4,3.2-3.2,3.2H4.6
									c-1.8,0-3.2-1.4-3.2-3.2V4.6"/>
							</g>
							<g id="Group_7_" transform="translate(26.528539, 135.528539)">
								<path id="Shape_8_" class="st1" d="M4,7.9c2.2,0,4-1.8,4-4c0-2.2-1.8-4-4-4C1.8,0,0,1.8,0,4C0,6.2,1.8,7.9,4,7.9 M4,6.5
									c1.4,0,2.6-1.1,2.6-2.6c0-1.4-1.1-2.6-2.6-2.6C2.6,1.4,1.4,2.6,1.4,4C1.4,5.4,2.6,6.5,4,6.5"/>
							</g>
							<g id="Group_8_" transform="translate(33.663155, 134.384308)">
								<path id="Shape_9_" class="st1" d="M1.9,0.9c0,0.5-0.4,0.9-0.9,0.9S0,1.5,0,0.9S0.4,0,0.9,0S1.9,0.4,1.9,0.9"/>
							</g>
							<g id="Group_9_" transform="translate(20.000000, 170.000000)">
								<path id="Shape_10_" class="st5" d="M1.1,0h18.9C20.5,0,21,0.5,21,1.1v18.9c0,0.6-0.5,1.1-1.1,1.1H1.1C0.5,21,0,20.5,0,19.9
									V1.1C0,0.5,0.5,0,1.1,0"/>
							</g>
							<g id="Group_10_" transform="translate(32.714401, 174.758000)">
								<path id="Shape_11_" class="st6" d="M0.4,0.1C0.2,0,0.1,0.1,0.1,0.3v9.2l3.8,1.9c0.4,0.2,0.7,0.1,0.7-0.3V2.2
									c0,0,0-0.1-0.1-0.1L0.4,0.1"/>
							</g>
							<g id="Group_11_" transform="translate(28.202685, 174.758000)">
								<path id="Shape_12_" class="st7" d="M0.1,7.2l4.3-7C4.5,0,4.8,0,5,0.1l4.1,2c0,0,0,0,0,0.1L4.6,9.5L0.1,7.2"/>
							</g>
							<g id="Group_12_" transform="translate(24.019094, 174.840031)">
								<path id="Shape_13_" class="st8" d="M0.4,0.1C0-0.1-0.1,0.1,0.1,0.4l4.1,6.7l4.5,2.3L4.3,2.1c0,0,0,0,0,0L0.4,0.1"/>
							</g>
							<g id="Group_13_" transform="translate(23.773000, 174.758000)">
								<path id="Shape_14_" class="st1" d="M4.5,11c0,0.4-0.3,0.6-0.6,0.4L0.4,9.6C0.2,9.5,0,9.3,0,9V0.4C0,0.1,0.2,0,0.5,0.1l4,2
									c0,0,0,0,0,0V11"/>
							</g>
							<g id="social-networks" transform="translate(18.000000, 18.000000)">
								<path id="Rectangle" class="st9" d="M66.5,36h67c2.5,0,4.5,2,4.5,4.5l0,0c0,2.5-2,4.5-4.5,4.5h-67C64,45,62,43,62,40.5l0,0
									C62,38,64,36,66.5,36z"/>
								<path id="Rectangle_1_" class="st9" d="M66.5,77h67c2.5,0,4.5,2,4.5,4.5l0,0c0,2.5-2,4.5-4.5,4.5h-67C64,86,62,84,62,81.5
									l0,0C62,79,64,77,66.5,77z"/>
								<path id="Rectangle_2_" class="st9" d="M66.5,118h67c2.5,0,4.5,2,4.5,4.5l0,0c0,2.5-2,4.5-4.5,4.5h-67c-2.5,0-4.5-2-4.5-4.5
									l0,0C62,120,64,118,66.5,118z"/>
								<path id="Rectangle_3_" class="st9" d="M66.5,159h67c2.5,0,4.5,2,4.5,4.5l0,0c0,2.5-2,4.5-4.5,4.5h-67c-2.5,0-4.5-2-4.5-4.5
									l0,0C62,161,64,159,66.5,159z"/>
								<path id="Rectangle_4_" class="st9" d="M309.5,77h32c2.5,0,4.5,2,4.5,4.5l0,0c0,2.5-2,4.5-4.5,4.5h-32c-2.5,0-4.5-2-4.5-4.5
									l0,0C305,79,307,77,309.5,77z"/>
								<path id="Rectangle_5_" class="st9" d="M309.5,36h32c2.5,0,4.5,2,4.5,4.5l0,0c0,2.5-2,4.5-4.5,4.5h-32c-2.5,0-4.5-2-4.5-4.5
									l0,0C305,38,307,36,309.5,36z"/>
								<path id="Rectangle_6_" class="st10" d="M309.5,118h32c2.5,0,4.5,2,4.5,4.5l0,0c0,2.5-2,4.5-4.5,4.5h-32
									c-2.5,0-4.5-2-4.5-4.5l0,0C305,120,307,118,309.5,118z"/>
								<path id="Rectangle_7_" class="st9" d="M309.5,159h32c2.5,0,4.5,2,4.5,4.5l0,0c0,2.5-2,4.5-4.5,4.5h-32
									c-2.5,0-4.5-2-4.5-4.5l0,0C305,161,307,159,309.5,159z"/>
								<path id="Rectangle_8_" class="st11" d="M37.5,77h11.1c2.5,0,4.5,2,4.5,4.5l0,0c0,2.5-2,4.5-4.5,4.5H37.5
									C35,86,33,84,33,81.5l0,0C33,79,35,77,37.5,77z"/>
								<path id="Rectangle_9_" class="st11" d="M37.5,36h11.1c2.5,0,4.5,2,4.5,4.5l0,0c0,2.5-2,4.5-4.5,4.5H37.5
									C35,45,33,43,33,40.5l0,0C33,38,35,36,37.5,36z"/>
								<path id="Rectangle_10_" class="st11" d="M37.5,118h11.1c2.5,0,4.5,2,4.5,4.5l0,0c0,2.5-2,4.5-4.5,4.5H37.5
									c-2.5,0-4.5-2-4.5-4.5l0,0C33,120,35,118,37.5,118z"/>
								<path id="Rectangle_11_" class="st11" d="M37.5,159h11.1c2.5,0,4.5,2,4.5,4.5l0,0c0,2.5-2,4.5-4.5,4.5H37.5
									c-2.5,0-4.5-2-4.5-4.5l0,0C33,161,35,159,37.5,159z"/>
								<path id="Rectangle_12_" class="st12" d="M4.5,0h129c2.5,0,4.5,2,4.5,4.5l0,0c0,2.5-2,4.5-4.5,4.5H4.5C2,9,0,7,0,4.5l0,0
									C0,2,2,0,4.5,0z"/>
							</g>
						</g>
					</g>
					<g id="Group-2">
						<g id="Group_14_">
							<polygon id="Shape_15_" class="st13" points="435,0 435,73 0,73 0,0 							"/>
						</g>
						<g id="Group_15_" transform="translate(29.000000, 32.000000)">
							<path id="Shape_16_" class="st14" d="M12.5,11h-0.8l-0.3-0.3c1-1.1,1.6-2.6,1.6-4.2C13,2.9,10.1,0,6.5,0S0,2.9,0,6.5
								S2.9,13,6.5,13c1.6,0,3.1-0.6,4.2-1.6l0.3,0.3v0.8l5,5l1.5-1.5L12.5,11 M6.5,11C4,11,2,9,2,6.5S4,2,6.5,2S11,4,11,6.5
								S9,11,6.5,11"/>
						</g>
					</g>
					<g id="topone" transform="translate(24.000000, 96.000000)">
						<g id="top-one">
							<path id="Shape_17_" class="st0" d="M381,0c1.7,0,3,1.3,3,3v250c0,1.7-1.3,3-3,3H3c-1.7,0-3-1.3-3-3V3c0-1.7,1.3-3,3-3H381z"
								/>
						</g>
						<g id="Group_16_" transform="translate(19.000000, 88.000000)">
							<polyline id="Shape_18_" class="st15" points="0,0 346,0 346,23 0,23 0,0 							"/>
						</g>
						<g id="Group_17_" transform="translate(12.000000, 80.000000)">
							<path id="Shape_19_" class="st1" d="M3,0h354c1.7,0,3,1.3,3,3v31c0,1.7-1.3,3-3,3H3c-1.7,0-3-1.3-3-3V3C0,1.3,1.3,0,3,0"/>
						</g>
						<g id="Group_18_" transform="translate(19.000000, 129.000000)">
							<polyline id="Shape_20_" class="st15" points="0,0 346,0 346,23 0,23 0,0 							"/>
						</g>
						<g id="Group_19_" transform="translate(12.000000, 121.000000)">
							<path id="Shape_21_" class="st1" d="M3,0h354c1.7,0,3,1.3,3,3v31c0,1.7-1.3,3-3,3H3c-1.7,0-3-1.3-3-3V3C0,1.3,1.3,0,3,0"/>
						</g>
						<g id="Group_20_" transform="translate(19.000000, 170.000000)">
							<polyline id="Shape_22_" class="st15" points="0,0 346,0 346,23 0,23 0,0 							"/>
						</g>
						<g id="Group_21_" transform="translate(12.000000, 162.000000)">
							<path id="Shape_23_" class="st1" d="M3,0h354c1.7,0,3,1.3,3,3v31c0,1.7-1.3,3-3,3H3c-1.7,0-3-1.3-3-3V3C0,1.3,1.3,0,3,0"/>
						</g>
						<g id="Group_22_" transform="translate(19.000000, 211.000000)">
							<polyline id="Shape_24_" class="st15" points="0,0 346,0 346,23 0,23 0,0 							"/>
						</g>
						<g id="Group_23_" transform="translate(12.000000, 203.000000)">
							<path id="Shape_25_" class="st1" d="M3,0h354c1.7,0,3,1.3,3,3v31c0,1.7-1.3,3-3,3H3c-1.7,0-3-1.3-3-3V3C0,1.3,1.3,0,3,0"/>
						</g>
						<g id="Group_24_" transform="translate(136.000000, 88.000000)">
						</g>
						<path id="Rectangle_13_" class="st16" d="M327.5,95h32c2.5,0,4.5,2,4.5,4.5l0,0c0,2.5-2,4.5-4.5,4.5h-32c-2.5,0-4.5-2-4.5-4.5
							l0,0C323,97,325,95,327.5,95z"/>
						<path id="Rectangle_14_" class="st16" d="M327.5,218h32c2.5,0,4.5,2,4.5,4.5l0,0c0,2.5-2,4.5-4.5,4.5h-32
							c-2.5,0-4.5-2-4.5-4.5l0,0C323,220,325,218,327.5,218z"/>
						<path id="Rectangle_15_" class="st17" d="M327.5,54h32c2.5,0,4.5,2,4.5,4.5l0,0c0,2.5-2,4.5-4.5,4.5h-32c-2.5,0-4.5-2-4.5-4.5
							l0,0C323,56,325,54,327.5,54z"/>
						<path id="Rectangle_16_" class="st16" d="M327.5,136h32c2.5,0,4.5,2,4.5,4.5l0,0c0,2.5-2,4.5-4.5,4.5h-32
							c-2.5,0-4.5-2-4.5-4.5l0,0C323,138,325,136,327.5,136z"/>
						<path id="Rectangle_17_" class="st16" d="M327.5,177h32c2.5,0,4.5,2,4.5,4.5l0,0c0,2.5-2,4.5-4.5,4.5h-32
							c-2.5,0-4.5-2-4.5-4.5l0,0C323,179,325,177,327.5,177z"/>
						<path id="Rectangle_18_" class="st18" d="M57.5,56h67c2.5,0,4.5,2,4.5,4.5l0,0c0,2.5-2,4.5-4.5,4.5h-67C55,65,53,63,53,60.5
							l0,0C53,58,55,56,57.5,56z"/>
						<path id="Rectangle_19_" class="st18" d="M57.5,97h67c2.5,0,4.5,2,4.5,4.5l0,0c0,2.5-2,4.5-4.5,4.5h-67c-2.5,0-4.5-2-4.5-4.5
							l0,0C53,99,55,97,57.5,97z"/>
						<path id="Rectangle_20_" class="st18" d="M57.5,138h67c2.5,0,4.5,2,4.5,4.5l0,0c0,2.5-2,4.5-4.5,4.5h-67c-2.5,0-4.5-2-4.5-4.5
							l0,0C53,140,55,138,57.5,138z"/>
						<path id="Rectangle_21_" class="st18" d="M57.5,179h67c2.5,0,4.5,2,4.5,4.5l0,0c0,2.5-2,4.5-4.5,4.5h-67c-2.5,0-4.5-2-4.5-4.5
							l0,0C53,181,55,179,57.5,179z"/>
						<path id="Rectangle_22_" class="st18" d="M57.5,219h67c2.5,0,4.5,2,4.5,4.5l0,0c0,2.5-2,4.5-4.5,4.5h-67c-2.5,0-4.5-2-4.5-4.5
							l0,0C53,221,55,219,57.5,219z"/>
						<path id="Rectangle_23_" class="st19" d="M142.5,97h32c2.5,0,4.5,2,4.5,4.5l0,0c0,2.5-2,4.5-4.5,4.5h-32c-2.5,0-4.5-2-4.5-4.5
							l0,0C138,99,140,97,142.5,97z"/>
						<path id="Rectangle_24_" class="st19" d="M142.5,56h32c2.5,0,4.5,2,4.5,4.5l0,0c0,2.5-2,4.5-4.5,4.5h-32c-2.5,0-4.5-2-4.5-4.5
							l0,0C138,58,140,56,142.5,56z"/>
						<path id="Rectangle_25_" class="st19" d="M142.5,138h32c2.5,0,4.5,2,4.5,4.5l0,0c0,2.5-2,4.5-4.5,4.5h-32
							c-2.5,0-4.5-2-4.5-4.5l0,0C138,140,140,138,142.5,138z"/>
						<path id="Rectangle_26_" class="st19" d="M142.5,179h32c2.5,0,4.5,2,4.5,4.5l0,0c0,2.5-2,4.5-4.5,4.5h-32
							c-2.5,0-4.5-2-4.5-4.5l0,0C138,181,140,179,142.5,179z"/>
						<path id="Rectangle_27_" class="st19" d="M142.5,219h32c2.5,0,4.5,2,4.5,4.5l0,0c0,2.5-2,4.5-4.5,4.5h-32
							c-2.5,0-4.5-2-4.5-4.5l0,0C138,221,140,219,142.5,219z"/>
						<path id="Rectangle_28_" class="st20" d="M29.5,97h11.1c2.5,0,4.5,2,4.5,4.5l0,0c0,2.5-2,4.5-4.5,4.5H29.5
							c-2.5,0-4.5-2-4.5-4.5l0,0C25,99,27,97,29.5,97z"/>
						<path id="Rectangle_29_" class="st20" d="M29.5,56h11.1c2.5,0,4.5,2,4.5,4.5l0,0c0,2.5-2,4.5-4.5,4.5H29.5
							C27,65,25,63,25,60.5l0,0C25,58,27,56,29.5,56z"/>
						<path id="Rectangle_30_" class="st20" d="M29.5,138h11.1c2.5,0,4.5,2,4.5,4.5l0,0c0,2.5-2,4.5-4.5,4.5H29.5
							c-2.5,0-4.5-2-4.5-4.5l0,0C25,140,27,138,29.5,138z"/>
						<path id="Rectangle_31_" class="st20" d="M29.5,179h11.1c2.5,0,4.5,2,4.5,4.5l0,0c0,2.5-2,4.5-4.5,4.5H29.5
							c-2.5,0-4.5-2-4.5-4.5l0,0C25,181,27,179,29.5,179z"/>
						<path id="Rectangle_32_" class="st20" d="M29.5,219h11.1c2.5,0,4.5,2,4.5,4.5l0,0c0,2.5-2,4.5-4.5,4.5H29.5
							c-2.5,0-4.5-2-4.5-4.5l0,0C25,221,27,219,29.5,219z"/>
						<path id="Rectangle_33_" class="st12" d="M22.5,15h101c2.5,0,4.5,2,4.5,4.5l0,0c0,2.5-2,4.5-4.5,4.5h-101C20,24,18,22,18,19.5
							l0,0C18,17,20,15,22.5,15z"/>
					</g>
					<g id="bottom-one" transform="translate(24.000000, 594.000000)">
						<g id="top-one_1_">
							<path id="Shape_26_" class="st0" d="M381,0c1.7,0,3,1.3,3,3v250c0,1.7-1.3,3-3,3H3c-1.7,0-3-1.3-3-3V3c0-1.7,1.3-3,3-3H381z"
								/>
						</g>
						<g id="Group_25_" transform="translate(19.000000, 88.000000)">
							<polyline id="Shape_27_" class="st15" points="0,0 346,0 346,23 0,23 0,0 							"/>
						</g>
						<g id="Group_26_" transform="translate(12.000000, 80.000000)">
							<path id="Shape_28_" class="st1" d="M3,0h354c1.7,0,3,1.3,3,3v31c0,1.7-1.3,3-3,3H3c-1.7,0-3-1.3-3-3V3C0,1.3,1.3,0,3,0"/>
						</g>
						<g id="Group_27_" transform="translate(12.000000, 40.000000)">
							<path id="Shape_29_" class="st1" d="M3,0h354c1.7,0,3,1.3,3,3v31c0,1.7-1.3,3-3,3H3c-1.7,0-3-1.3-3-3V3C0,1.3,1.3,0,3,0"/>
						</g>
						<g id="Group_28_" transform="translate(19.000000, 129.000000)">
							<polyline id="Shape_30_" class="st15" points="0,0 346,0 346,23 0,23 0,0 							"/>
						</g>
						<g id="Group_29_" transform="translate(12.000000, 121.000000)">
							<path id="Shape_31_" class="st1" d="M3,0h354c1.7,0,3,1.3,3,3v31c0,1.7-1.3,3-3,3H3c-1.7,0-3-1.3-3-3V3C0,1.3,1.3,0,3,0"/>
						</g>
						<g id="Group_30_" transform="translate(19.000000, 170.000000)">
							<polyline id="Shape_32_" class="st15" points="0,0 346,0 346,23 0,23 0,0 							"/>
						</g>
						<g id="Group_31_" transform="translate(12.000000, 162.000000)">
							<path id="Shape_33_" class="st1" d="M3,0h354c1.7,0,3,1.3,3,3v31c0,1.7-1.3,3-3,3H3c-1.7,0-3-1.3-3-3V3C0,1.3,1.3,0,3,0"/>
						</g>
						<g id="Group_32_" transform="translate(19.000000, 211.000000)">
							<polyline id="Shape_34_" class="st15" points="0,0 346,0 346,23 0,23 0,0 							"/>
						</g>
						<g id="Group_33_" transform="translate(12.000000, 203.000000)">
							<path id="Shape_35_" class="st1" d="M3,0h354c1.7,0,3,1.3,3,3v31c0,1.7-1.3,3-3,3H3c-1.7,0-3-1.3-3-3V3C0,1.3,1.3,0,3,0"/>
						</g>
						<g id="Group_34_" transform="translate(136.000000, 88.000000)">
						</g>
						<path id="Rectangle_34_" class="st16" d="M327.5,95h32c2.5,0,4.5,2,4.5,4.5l0,0c0,2.5-2,4.5-4.5,4.5h-32c-2.5,0-4.5-2-4.5-4.5
							l0,0C323,97,325,95,327.5,95z"/>
						<path id="Rectangle_35_" class="st16" d="M327.5,218h32c2.5,0,4.5,2,4.5,4.5l0,0c0,2.5-2,4.5-4.5,4.5h-32
							c-2.5,0-4.5-2-4.5-4.5l0,0C323,220,325,218,327.5,218z"/>
						<path id="Rectangle_36_" class="st10" d="M327.5,54h32c2.5,0,4.5,2,4.5,4.5l0,0c0,2.5-2,4.5-4.5,4.5h-32c-2.5,0-4.5-2-4.5-4.5
							l0,0C323,56,325,54,327.5,54z"/>
						<path id="Rectangle_37_" class="st16" d="M327.5,136h32c2.5,0,4.5,2,4.5,4.5l0,0c0,2.5-2,4.5-4.5,4.5h-32
							c-2.5,0-4.5-2-4.5-4.5l0,0C323,138,325,136,327.5,136z"/>
						<path id="Rectangle_38_" class="st16" d="M327.5,177h32c2.5,0,4.5,2,4.5,4.5l0,0c0,2.5-2,4.5-4.5,4.5h-32
							c-2.5,0-4.5-2-4.5-4.5l0,0C323,179,325,177,327.5,177z"/>
						<path id="Rectangle_39_" class="st18" d="M57.5,56h67c2.5,0,4.5,2,4.5,4.5l0,0c0,2.5-2,4.5-4.5,4.5h-67C55,65,53,63,53,60.5
							l0,0C53,58,55,56,57.5,56z"/>
						<path id="Rectangle_40_" class="st18" d="M57.5,97h67c2.5,0,4.5,2,4.5,4.5l0,0c0,2.5-2,4.5-4.5,4.5h-67c-2.5,0-4.5-2-4.5-4.5
							l0,0C53,99,55,97,57.5,97z"/>
						<path id="Rectangle_41_" class="st18" d="M57.5,138h67c2.5,0,4.5,2,4.5,4.5l0,0c0,2.5-2,4.5-4.5,4.5h-67c-2.5,0-4.5-2-4.5-4.5
							l0,0C53,140,55,138,57.5,138z"/>
						<path id="Rectangle_42_" class="st18" d="M57.5,179h67c2.5,0,4.5,2,4.5,4.5l0,0c0,2.5-2,4.5-4.5,4.5h-67c-2.5,0-4.5-2-4.5-4.5
							l0,0C53,181,55,179,57.5,179z"/>
						<path id="Rectangle_43_" class="st18" d="M57.5,219h67c2.5,0,4.5,2,4.5,4.5l0,0c0,2.5-2,4.5-4.5,4.5h-67c-2.5,0-4.5-2-4.5-4.5
							l0,0C53,221,55,219,57.5,219z"/>
						<path id="Rectangle_44_" class="st19" d="M142.5,97h32c2.5,0,4.5,2,4.5,4.5l0,0c0,2.5-2,4.5-4.5,4.5h-32c-2.5,0-4.5-2-4.5-4.5
							l0,0C138,99,140,97,142.5,97z"/>
						<path id="Rectangle_45_" class="st19" d="M142.5,56h32c2.5,0,4.5,2,4.5,4.5l0,0c0,2.5-2,4.5-4.5,4.5h-32c-2.5,0-4.5-2-4.5-4.5
							l0,0C138,58,140,56,142.5,56z"/>
						<path id="Rectangle_46_" class="st19" d="M142.5,138h32c2.5,0,4.5,2,4.5,4.5l0,0c0,2.5-2,4.5-4.5,4.5h-32
							c-2.5,0-4.5-2-4.5-4.5l0,0C138,140,140,138,142.5,138z"/>
						<path id="Rectangle_47_" class="st19" d="M142.5,179h32c2.5,0,4.5,2,4.5,4.5l0,0c0,2.5-2,4.5-4.5,4.5h-32
							c-2.5,0-4.5-2-4.5-4.5l0,0C138,181,140,179,142.5,179z"/>
						<path id="Rectangle_48_" class="st19" d="M142.5,219h32c2.5,0,4.5,2,4.5,4.5l0,0c0,2.5-2,4.5-4.5,4.5h-32
							c-2.5,0-4.5-2-4.5-4.5l0,0C138,221,140,219,142.5,219z"/>
						<path id="Rectangle_49_" class="st20" d="M29.5,97h11.1c2.5,0,4.5,2,4.5,4.5l0,0c0,2.5-2,4.5-4.5,4.5H29.5
							c-2.5,0-4.5-2-4.5-4.5l0,0C25,99,27,97,29.5,97z"/>
						<path id="Rectangle_50_" class="st20" d="M29.5,56h11.1c2.5,0,4.5,2,4.5,4.5l0,0c0,2.5-2,4.5-4.5,4.5H29.5
							C27,65,25,63,25,60.5l0,0C25,58,27,56,29.5,56z"/>
						<path id="Rectangle_51_" class="st20" d="M29.5,138h11.1c2.5,0,4.5,2,4.5,4.5l0,0c0,2.5-2,4.5-4.5,4.5H29.5
							c-2.5,0-4.5-2-4.5-4.5l0,0C25,140,27,138,29.5,138z"/>
						<path id="Rectangle_52_" class="st20" d="M29.5,179h11.1c2.5,0,4.5,2,4.5,4.5l0,0c0,2.5-2,4.5-4.5,4.5H29.5
							c-2.5,0-4.5-2-4.5-4.5l0,0C25,181,27,179,29.5,179z"/>
						<path id="Rectangle_53_" class="st20" d="M29.5,219h11.1c2.5,0,4.5,2,4.5,4.5l0,0c0,2.5-2,4.5-4.5,4.5H29.5
							c-2.5,0-4.5-2-4.5-4.5l0,0C25,221,27,219,29.5,219z"/>
						<path id="Rectangle_54_" class="st12" d="M22.5,15h101c2.5,0,4.5,2,4.5,4.5l0,0c0,2.5-2,4.5-4.5,4.5h-101C20,24,18,22,18,19.5
							l0,0C18,17,20,15,22.5,15z"/>
					</g>
				</g>
			</g>
		</g>
		<g id="default-tlds" transform="translate(59.000000, 29.000000)">
			<path id="Rectangle_55_" class="st9" d="M6.5,0h110c3.6,0,6.5,2.9,6.5,6.5l0,0c0,3.6-2.9,6.5-6.5,6.5H6.5C2.9,13,0,10.1,0,6.5
				l0,0C0,2.9,2.9,0,6.5,0z"/>
		</g>
	</g>
</g>
<image style="overflow:visible;" width="750" height="2364" xlink:href="../../../InVision/Resource/Ammirati/Delhaize Food Lion Mobile/Screens/ 01 03.png"  transform="matrix(0.56 0 0 0.56 0 1.08)">
</image>
</svg>
